<svg xmlns="http://www.w3.org/2000/svg" aria-hidden="true" style="position:absolute;width:0;height:0;overflow:hidden">
  <defs>
    <symbol id="icon-hamburger-menu" viewBox="0 0 32 32">
      <path fill="#fff" d="M0 4.8V8h32V4.8zm0 9.6v3.2h32v-3.2zM0 24v3.2h32V24z"/>
    </symbol>
    <symbol id="icon-linkedin" viewBox="0 0 32 32">
      <path d="M31.992 32H32V20.262c0-5.741-1.237-10.163-7.947-10.163-3.227 0-5.392 1.77-6.277 3.45h-.093v-2.914h-6.365v21.363h6.627V21.42c0-2.786.528-5.48 3.978-5.48 3.398 0 3.448 3.179 3.448 5.658V32h6.621zM.528 10.635h6.635V32H.528V10.635zM3.843 0A3.843 3.843 0 0 0 0 3.843c0 2.12 1.722 3.878 3.843 3.878 2.12 0 3.842-1.757 3.842-3.878S5.965.002 3.844 0z"/>
    </symbol>
    <symbol id="icon-telegram" viewBox="0 0 32 32">
      <path d="M28.391 3.885c-3.937 1.631-20.82 8.624-25.484 10.53C-.221 15.636 1.61 16.78 1.61 16.78s2.67.916 4.96 1.602c2.289.687 3.51-.076 3.51-.076l10.758-7.249c3.815-2.594 2.9-.458 1.984.458-1.984 1.984-5.265 5.112-8.012 7.63-1.221 1.068-.611 1.984-.076 2.442 1.984 1.679 7.401 5.112 7.706 5.341 1.612 1.141 4.782 2.784 5.265-.687l1.908-11.979c.611-4.044 1.221-7.783 1.297-8.851.229-2.595-2.518-1.526-2.518-1.526z"/>
    </symbol>
    <symbol id="icon-github" viewBox="0 0 32 32">
      <path d="M16.273.667a15.332 15.332 0 0 0-4.847 29.882c.772.141 1.045-.339 1.045-.744v-2.607c-4.282.932-5.186-2.061-5.186-2.061a4.098 4.098 0 0 0-1.704-2.249c-1.384-.941.113-.941.113-.941a3.23 3.23 0 0 1 2.344 1.581c.421.763 1.128 1.326 1.965 1.567s1.735.137 2.496-.287a3.26 3.26 0 0 1 .941-2.052c-3.407-.386-6.984-1.704-6.984-7.529a5.928 5.928 0 0 1 1.572-4.113 5.587 5.587 0 0 1 .151-4.056s1.289-.414 4.216 1.572c2.514-.69 5.166-.69 7.68 0 2.927-1.986 4.207-1.572 4.207-1.572a5.566 5.566 0 0 1 .188 4.028 5.932 5.932 0 0 1 1.572 4.113c0 5.892-3.586 7.181-7.002 7.529a3.626 3.626 0 0 1 1.045 2.823v4.207c0 .499.273.885 1.054.734A15.332 15.332 0 0 0 16.273.666z"/>
    </symbol>
    <symbol id="icon-cv" viewBox="0 0 32 32">
      <path d="M.6.6c-.85.85-.85 29.95 0 30.8s24.45.85 25.3 0c.7-.7.8-6.4.1-6.4-.55 0-.9 1.35-1.1 4l-.15 1.75h-23V1.25h23l.25 3.7c.15 2.35.5 3.8.9 3.95.85.25.85-7.45 0-8.3S1.45-.25.6.6z"/>
      <path d="M10.2 4.45c-4.05 2.45-3.1 8.5 1.55 10.05 2.85.95 6.45-1.25 7.05-4.25.9-4.85-4.35-8.4-8.6-5.8zm6.2 1.65c1.05 1.05 1.6 4.25.8 5.05-.7.7-2-.8-1.8-2.15.25-1.9-1.6-3.3-3.15-2.3-.6.4-1 1.2-1 2.1 0 1.4-1.1 2.85-1.85 2.4-.25-.15-.4-1.1-.4-2.15 0-3.95 4.4-5.7 7.4-2.95zm-2.5 2.5c-.1.65-.35 1.15-.65 1.15-.25 0-.55-.5-.65-1.15-.1-.75.1-1.1.65-1.1s.75.35.65 1.1zm1.5 3.55c.9.7-.15 1.35-2.15 1.35s-3.05-.65-2.15-1.35c1.4-1.15 2.85-1.15 4.3 0zm12.1-3.4c-.35.45-2.4 3.8-4.5 7.45-2.95 5.1-3.9 7.25-4.15 9.2-.15 1.45-.1 2.7.2 2.85.25.2 1.35-.3 2.45-1.1 1.55-1.05 3.05-3.2 6.35-8.85 3.75-6.45 4.25-7.6 3.85-8.75-.55-1.6-3.15-2.1-4.2-.8zm2.9 1.45c.3 1.45-.65 2-1.9 1.15-1-.7-1-.8-.2-1.55.95-1 1.9-.8 2.1.4zm-2.35 2.3c.5.3.95.7.95.95 0 .3-4.95 9.25-5.8 10.45-.05.1-.65-.1-1.35-.5l-1.2-.65 3.05-5.35c1.65-2.95 3.1-5.35 3.2-5.4.1 0 .6.25 1.15.5zM21.7 24.9c.1.2-.2.65-.75 1-.8.55-.95.45-.95-.4 0-.95 1.2-1.4 1.7-.6zM4.5 17.5c0 .25.25.5.5.5.3 0 .5-.25.5-.5 0-.3-.2-.5-.5-.5-.25 0-.5.2-.5.5zm2.5 0c0 .3 2 .5 5 .5s5-.2 5-.5-2-.5-5-.5-5 .2-5 .5zM4.5 21c0 .25.25.5.5.5.3 0 .5-.25.5-.5 0-.3-.2-.5-.5-.5-.25 0-.5.2-.5.5zM7 21c0 .3 2 .5 5 .5s5-.2 5-.5-2-.5-5-.5-5 .2-5 .5zm-2.5 3.5c0 .25.25.5.5.5.3 0 .5-.25.5-.5 0-.3-.2-.5-.5-.5-.25 0-.5.2-.5.5zm2.5 0c0 .3 2 .5 5 .5s5-.2 5-.5-2-.5-5-.5-5 .2-5 .5zm5.5 3.5c0 .25 1 .5 2.25.5S17 28.25 17 28c0-.3-1-.5-2.25-.5s-2.25.2-2.25.5z"/>
    </symbol>
    <symbol id="icon-html" viewBox="0 0 32 32">
      <path d="m1.892 0 2.567 28.801L15.983 32l11.554-3.204L30.109 0H1.893zM24.52 9.42H11.003l.322 3.617h12.874l-.97 10.844-7.245 2.008-7.237-2.008-.495-5.547h3.547l.252 2.82 3.933 1.06.009-.002 3.935-1.062.408-4.58H8.094L7.141 5.889h17.694l-.316 3.532z"/>
    </symbol>
    <symbol id="icon-CSS" viewBox="0 0 32 32">
      <path d="M29.028 0H2.97c-.623 0-1.092.529-1.037 1.152l2.379 26.671c.056.623.595 1.276 1.2 1.444l9.382 2.606c.605.168 1.592.169 2.197.003l9.394-2.602c.605-.168 1.144-.815 1.199-1.44l2.381-26.682A1.04 1.04 0 0 0 29.027 0zm-4.519 9.628c-.001.004-.004.008-.009.008s-.007-.002-.008-.006l-7.351 3.012a.237.237 0 0 0 .088.457h5.721a1.072 1.072 0 0 1 1.066 1.19v-.005l-.894 8.381a1.075 1.075 0 0 1-.702.895l-.007.002-6.07 2.136a1.061 1.061 0 0 1-.714 0l.008.002-6.041-2.093a1.077 1.077 0 0 1-.715-.894v-.005l-.405-3.795a.706.706 0 0 1 .702-.781h1.682c.362 0 .664.272.703.631l.248 2.333 4.182 1.454 4.202-1.468.513-4.838H8.828a.707.707 0 0 1-.702-.629L7.9 13.564a.704.704 0 0 1 .433-.73l7.603-3.135a.195.195 0 0 0-.072-.376H7.857a.47.47 0 0 1-.468-.42v-.002l-.231-2.204a.471.471 0 0 1 .468-.52h16.749a.471.471 0 0 1 .468.526v-.002l-.332 2.925z"/>
    </symbol>
    <symbol id="icon-JavaScript" viewBox="0 0 32 32">
      <path d="M-.1-.1v32.2h32.2V-.1H-.1zm17.523 25.113c0 3.133-1.84 4.563-4.52 4.563-2.422 0-3.824-1.249-4.543-2.767l2.465-1.488c.475.841.906 1.553 1.948 1.553.992 0 1.624-.389 1.624-1.905V14.684h3.026v10.328zm7.159 4.563c-2.81 0-4.629-1.336-5.513-3.091l2.465-1.423c.647 1.057 1.495 1.84 2.983 1.84 1.25 0 2.056-.626 2.056-1.495 0-1.035-.82-1.402-2.207-2.013l-.754-.323c-2.185-.927-3.629-2.099-3.629-4.565 0-2.271 1.732-3.996 4.427-3.996 1.927 0 3.306.668 4.299 2.422l-2.358 1.51c-.517-.927-1.078-1.293-1.948-1.293-.883 0-1.444.561-1.444 1.294 0 .906.561 1.272 1.862 1.84l.755.323c2.574 1.099 4.018 2.229 4.018 4.758 0 2.717-2.143 4.211-5.011 4.211l-.001.001z"/>
      <symbol id="icon-react" viewBox="0 0 32 32">
        <path fill="none" stroke-width="2.087" d="M30.609 16c0 3.457-6.541 6.261-14.609 6.261S1.391 19.458 1.391 16 7.932 9.739 16 9.739 30.609 12.542 30.609 16z"/>
        <path fill="none" stroke-width="2.087" d="M8.909 28.872c3.098 1.65 8.786-2.776 12.703-9.884 3.917-7.11 4.579-14.21 1.481-15.861s-8.786 2.776-12.703 9.884c-3.917 7.11-4.58 14.21-1.482 15.861z"/>
        <path fill="none" stroke-width="2.087" d="M23.092 28.872c-3.099 1.65-8.786-2.776-12.703-9.884-3.917-7.11-4.58-14.21-1.482-15.861s8.786 2.776 12.703 9.884c3.917 7.11 4.58 14.21 1.482 15.861z"/>
        <path fill="none" stroke-width="2.087" d="M13.913 16a2.087 2.087 0 1 0 4.174 0 2.087 2.087 0 1 0-4.174 0z"/>
      </symbol>
      <symbol id="icon-typescript" viewBox="0 0 32 32">
        <path d="M0 16v16h32V0H0zm25.788-1.275a3.982 3.982 0 0 1 2.001 1.153c.295.315.732.888.767 1.027.011.04-1.381.973-2.224 1.497-.031.02-.153-.112-.289-.315-.413-.6-.844-.859-1.504-.904-.971-.067-1.595.441-1.589 1.289l-.001.05c0 .201.051.391.14.557l-.003-.006c.213.441.611.707 1.853 1.244 2.292.987 3.272 1.636 3.881 2.56.68 1.031.833 2.677.371 3.901-.507 1.331-1.767 2.235-3.54 2.533-.548.097-1.848.083-2.437-.024-1.285-.229-2.504-.864-3.256-1.697-.295-.324-.869-1.173-.833-1.233.015-.021.147-.103.293-.188.144-.081.681-.392 1.189-.687l.92-.533.193.285c.269.411.857.975 1.213 1.163 1.021.539 2.423.463 3.113-.157a1.175 1.175 0 0 0 .417-.962v.003c0-.371-.047-.533-.24-.813-.248-.355-.756-.653-2.199-1.28-1.651-.711-2.361-1.152-3.012-1.853a4.215 4.215 0 0 1-.871-1.57l-.008-.03c-.121-.452-.152-1.585-.056-2.041.34-1.596 1.544-2.707 3.281-3.037.564-.107 1.875-.067 2.428.071zm-7.512 1.336.011 1.311H14.12v11.835h-2.947V17.372H7.01v-1.285c0-.712.015-1.307.035-1.32.016-.021 2.551-.032 5.623-.027l5.593.016z"/>
      </symbol>
      <symbol id="icon-nodejs" viewBox="0 0 32 32">
        <path d="M16 31.31a2.483 2.483 0 0 1-1.197-.316l.013.006-3.74-2.22c-.559-.312-.278-.425-.11-.482.76-.253.902-.308 1.688-.755.086-.057.198-.031.283.026l2.867 1.718c.113.056.255.056.339 0l11.223-6.497c.113-.054.168-.168.168-.309V9.511c0-.139-.056-.253-.168-.308l-11.223-6.47c-.111-.056-.253-.056-.339 0L4.578 9.201c-.111.055-.168.198-.168.308v12.967c0 .112.056.255.168.31l3.067 1.774c1.659.841 2.701-.145 2.701-1.127V10.636c0-.169.14-.339.337-.339h1.435c.166 0 .337.141.337.339v12.799c0 2.222-1.208 3.517-3.318 3.517-.647 0-1.153 0-2.588-.705l-2.952-1.685a2.38 2.38 0 0 1-1.183-2.055V9.539a2.37 2.37 0 0 1 1.183-2.054L14.814.988c.343-.187.75-.297 1.184-.297s.841.11 1.197.303l-.013-.007 11.219 6.497a2.37 2.37 0 0 1 1.183 2.049v12.973a2.38 2.38 0 0 1-1.172 2.049l-.011.006-11.219 6.495a2.888 2.888 0 0 1-1.185.253zm3.459-8.918c-4.922 0-5.934-2.251-5.934-4.161 0-.168.141-.339.337-.339h1.463c.169 0 .308.111.308.282.225 1.489.871 2.222 3.855 2.222 2.361 0 3.376-.536 3.376-1.802 0-.731-.284-1.265-3.967-1.63-3.065-.306-4.977-.986-4.977-3.432 0-2.277 1.912-3.628 5.12-3.628 3.599 0 5.371 1.241 5.595 3.937a.46.46 0 0 1-.087.255l.001-.001c-.056.056-.139.112-.223.112h-1.462a.326.326 0 0 1-.309-.249v-.002c-.339-1.551-1.21-2.055-3.514-2.055-2.59 0-2.899.9-2.899 1.575 0 .814.363 1.067 3.855 1.518 3.459.449 5.091 1.096 5.091 3.517-.031 2.477-2.053 3.881-5.628 3.881z"/>
      </symbol>
    </symbol>
    <symbol id="icon-tel" viewBox="0 0 20 32">
      <path d="M17 0H3C1.346 0 0 1.346 0 3v26c0 1.654 1.346 3 3 3h14c1.654 0 3-1.346 3-3V3c0-1.654-1.346-3-3-3zM3 2h14a1 1 0 0 1 1 1v21H2V3a1 1 0 0 1 1-1zm14 28H3a1 1 0 0 1-1-1v-3h16v3a1 1 0 0 1-1 1z"/>
      <path d="M4.708 27.478a.889.889 0 0 1 .001 1.319l-.001.001a1.048 1.048 0 0 1-1.417 0l.001.001a.889.889 0 0 1-.001-1.319l.001-.001a1.048 1.048 0 0 1 1.417 0l-.001-.001z"/>
    </symbol>
    <symbol id="icon-mail" viewBox="0 0 43 32">
      <path d="M38.667 0H4C1.795 0 0 1.795 0 4v24c0 2.205 1.795 4 4 4h34.667c2.205 0 4-1.795 4-4V4c0-2.205-1.795-4-4-4zm0 2.667c.181 0 .355.037.512.104L21.334 18.238 3.489 2.771c.151-.065.327-.104.512-.104h34.667zm0 26.666H4A1.333 1.333 0 0 1 2.667 28V5.587l17.792 15.421c.233.203.539.327.875.327s.642-.124.876-.328l-.002.001L40 5.587V28c0 .736-.597 1.333-1.333 1.333z"/>
    </symbol>
    <symbol id="icon-location" viewBox="0 0 32 32">
      <path d="m16 31.839-.549-.794c-.413-.598-10.118-14.713-10.118-20.379C5.333 4.785 10.118-.001 16-.001s10.667 4.785 10.667 10.667c0 5.666-9.705 19.781-10.118 20.379l-.549.794zm0-30.506c-5.147 0-9.333 4.187-9.333 9.333 0 4.525 7.257 15.703 9.333 18.809 2.077-3.106 9.333-14.285 9.333-18.809 0-5.147-4.187-9.333-9.333-9.333z"/>
      <path d="M16 15.333c-2.573 0-4.667-2.093-4.667-4.667S13.427 5.999 16 5.999s4.667 2.093 4.667 4.667-2.094 4.667-4.667 4.667zm0-8c-1.838 0-3.333 1.495-3.333 3.333s1.495 3.333 3.333 3.333 3.333-1.495 3.333-3.333S17.838 7.333 16 7.333z"/>
    </symbol>
    <symbol id="icon-close" viewBox="0 0 32 32">
      <path d="M16 4.48C9.642 4.48 4.48 9.642 4.48 16S9.642 27.52 16 27.52 27.52 22.358 27.52 16 22.358 4.48 16 4.48zm0 .64c6.013 0 10.88 4.867 10.88 10.88S22.013 26.88 16 26.88 5.12 22.013 5.12 16 9.987 5.12 16 5.12zm0 .96c-5.477 0-9.92 4.443-9.92 9.92s4.443 9.92 9.92 9.92 9.92-4.443 9.92-9.92a9.894 9.894 0 0 0-3.252-7.345.16.16 0 0 0-.271.115c0 .049.022.092.056.121a9.573 9.573 0 0 1 3.148 7.108c0 5.304-4.296 9.6-9.6 9.6s-9.6-4.296-9.6-9.6 4.296-9.6 9.6-9.6c1.162 0 2.275.207 3.305.584a.16.16 0 0 0 .111-.3h-.001a9.724 9.724 0 0 0-3.404-.604h-.011.001zm4.314 1.005a.16.16 0 0 0-.157.16c0 .064.037.118.091.144h.001c.214.106.425.22.63.341a.16.16 0 1 0 .163-.275h-.001a8.354 8.354 0 0 0-.593-.326l-.057-.026a.157.157 0 0 0-.073-.017h-.006zm1.289.759h-.002l-.015.001h.001a.16.16 0 0 0-.148.16.16.16 0 0 0 .069.132h.001c.107.075.211.152.314.23a.16.16 0 0 0 .196-.254 8.587 8.587 0 0 0-.295-.218l-.03-.02a.161.161 0 0 0-.089-.03zM12.16 11.52a.64.64 0 0 0-.453 1.092L15.095 16l-3.388 3.388a.641.641 0 0 0-.001.904h.001v.001a.637.637 0 0 0 .905 0L16 16.905l3.387 3.387a.639.639 0 0 0 .905.001.641.641 0 0 0 0-.905l-3.387-3.387 3.388-3.388a.64.64 0 0 0 0-.904.639.639 0 0 0-.905-.001L16 15.096l-3.388-3.388a.642.642 0 0 0-.452-.188zm0 .32h.001c.088 0 .168.036.225.094L16 15.548l3.614-3.614a.315.315 0 0 1 .225-.094h.001c.082 0 .163.031.226.094h.001a.314.314 0 0 1 0 .452L16.453 16l3.614 3.614a.314.314 0 0 1 0 .452.315.315 0 0 1-.225.094h-.003a.317.317 0 0 1-.225-.094L16 16.452l-3.614 3.614a.315.315 0 0 1-.225.094h-.003a.317.317 0 0 1-.225-.094.314.314 0 0 1 0-.452L15.547 16l-3.614-3.614a.314.314 0 0 1 0-.452.315.315 0 0 1 .225-.094h.001z"/>
    </symbol>
  </defs>
</svg>
